<svg xmlns="http://www.w3.org/2000/svg" width="179.125" height="65.86" viewBox="0 0 179.125 65.86"><g transform="translate(-110.534 -352.151)"><g transform="translate(110.534 352.151)"><path d="M113.789,392.828a9.156,9.156,0,0,0,6.654,3.208c1.723,0,3.016-.671,3.016-1.963,0-1.005-.67-1.388-2.441-2.154l-2.537-1.053c-4.356-1.771-6.463-3.734-6.463-7.229,0-4.452,3.542-7.085,8.712-7.085a11.015,11.015,0,0,1,8.521,3.542L126,384.068a7.6,7.6,0,0,0-5.313-2.25c-1.58,0-2.537.575-2.537,1.676,0,.909.623,1.34,2.49,2.106l2.3.957c4.6,1.867,6.654,3.734,6.654,7.229a6.578,6.578,0,0,1-2.633,5.553,10.446,10.446,0,0,1-6.607,2.01,11.963,11.963,0,0,1-9.813-4.6Z" transform="translate(-110.534 -364.872)" fill="#030504"/><path d="M160.533,377.652H167v23.7h-6.463Z" transform="translate(-136.6 -365.445)" fill="#030504"/><path d="M223.958,400.775H217.5V386.988c0-2.824-1.675-4.6-4.213-4.6a4.223,4.223,0,0,0-4.356,4.452v13.93h-6.463V386.988c0-2.824-1.675-4.6-4.213-4.6-2.633,0-4.356,1.771-4.356,4.6v13.787h-6.463v-23.7h5.936v2.106a9.084,9.084,0,0,1,6.7-2.633,8.055,8.055,0,0,1,7.037,3.4,10.376,10.376,0,0,1,7.9-3.4c5.554,0,8.952,3.782,8.952,9.526Z" transform="translate(-150.623 -364.872)" fill="#030504"/><path d="M290.18,401.349a9.406,9.406,0,0,1-7.084-2.872v10.914h-6.463V377.079h5.936v2.968a9.015,9.015,0,0,1,7.611-3.494c6.607,0,11.489,5.265,11.489,12.351S296.787,401.349,290.18,401.349Zm-1.2-18.957c-3.255,0-5.983,2.25-5.983,6.51,0,4.212,2.681,6.558,5.983,6.558,3.447,0,6.128-2.633,6.128-6.51C295.111,384.977,292.478,382.392,288.983,382.392Z" transform="translate(-197.125 -364.872)" fill="#030504"/><path d="M339.533,352.151H346v35.9h-6.463Z" transform="translate(-229.916 -352.151)" fill="#030504"/><path d="M366.432,377.652h6.463v23.7h-6.463Z" transform="translate(-243.939 -365.445)" fill="#030504"/><path d="M403.215,376.549c6.941-.1,12.877,5.6,12.733,12.351.144,6.749-5.84,12.542-12.782,12.4a12.378,12.378,0,1,1,.048-24.749Zm0,5.888c-3.591,0-6.128,2.728-6.128,6.51a6.134,6.134,0,1,0,12.255,0A6.2,6.2,0,0,0,403.215,382.437Z" transform="translate(-256.5 -364.869)" fill="#030504"/><path d="M468.684,383.036H466.96c-3.877,0-6.366,2.106-6.366,6.175v11.824h-6.463v-23.7h5.936v2.824a8.217,8.217,0,0,1,6.51-3.111,7.006,7.006,0,0,1,2.106.287Z" transform="translate(-289.659 -365.132)" fill="#030504"/><path d="M250.59,477.4a4.952,4.952,0,0,1-1,.126,1.82,1.82,0,0,1-2.079-1.964V472.8h-.919v-1.045h.919v-1.482h1.218v1.482h1.677V472.8h-1.677v2.654c0,.724.379.977,1.114.977.172,0,.414-.023.747-.057Z" transform="translate(-181.464 -413.731)" fill="#030504"/><path d="M257.733,476.449a1.744,1.744,0,0,0,1.838,1.482,2.433,2.433,0,0,0,1.643-.666l.574.827a3.162,3.162,0,0,1-2.252.908,2.948,2.948,0,1,1-.115-5.894,2.538,2.538,0,0,1,2.608,2.585,3.6,3.6,0,0,1-.092.758Zm3.091-.943a1.364,1.364,0,0,0-1.448-1.379,1.652,1.652,0,0,0-1.62,1.379Z" transform="translate(-186.631 -415.207)" fill="#030504"/><path d="M273.17,473.106a2.688,2.688,0,0,1,2.378,1.31l-.85.666a1.8,1.8,0,0,0-1.516-.862,1.834,1.834,0,0,0,0,3.665,1.839,1.839,0,0,0,1.516-.85l.85.655A2.729,2.729,0,0,1,273.17,479a2.947,2.947,0,1,1,0-5.894Z" transform="translate(-193.762 -415.207)" fill="#030504"/><path d="M289.1,475.77H287.9v-3.355a1.2,1.2,0,0,0-1.229-1.31,1.249,1.249,0,0,0-1.287,1.31v3.355h-1.206v-8.617h1.206v3.539a2.072,2.072,0,0,1,1.631-.689,2.038,2.038,0,0,1,2.091,2.24Z" transform="translate(-201.057 -412.104)" fill="#030504"/><path d="M302.9,478.874H301.7v-3.367a1.2,1.2,0,0,0-1.229-1.31,1.249,1.249,0,0,0-1.287,1.31v3.367h-1.206v-5.641H299.1v.551a2.225,2.225,0,0,1,1.689-.678,2.032,2.032,0,0,1,2.114,2.24Z" transform="translate(-208.251 -415.208)" fill="#030504"/><path d="M314.006,473.105a2.947,2.947,0,1,1-2.975,2.941A2.952,2.952,0,0,1,314.006,473.105Zm.012,1.1a1.773,1.773,0,0,0-1.758,1.85,1.754,1.754,0,1,0,3.5,0A1.778,1.778,0,0,0,314.018,474.208Z" transform="translate(-215.057 -415.207)" fill="#030504"/><path d="M326.391,467.153H327.6v8.617h-1.206Z" transform="translate(-223.065 -412.104)" fill="#030504"/><path d="M334.79,473.105a2.947,2.947,0,1,1-2.976,2.941A2.952,2.952,0,0,1,334.79,473.105Zm.011,1.1a1.773,1.773,0,0,0-1.758,1.85,1.753,1.753,0,1,0,3.5,0A1.777,1.777,0,0,0,334.8,474.208Z" transform="translate(-225.892 -415.207)" fill="#030504"/><path d="M352.362,473.232v5.055a2.584,2.584,0,0,1-2.826,2.78A3.918,3.918,0,0,1,346.824,480l.666-.839a3.013,3.013,0,0,0,1.976.8,1.509,1.509,0,0,0,1.689-1.608v-.4a2.433,2.433,0,0,1-1.907.8,2.828,2.828,0,0,1,0-5.653,2.379,2.379,0,0,1,2,.931v-.8Zm-2.9.954a1.671,1.671,0,0,0-1.723,1.746,1.731,1.731,0,0,0,.494,1.287,1.794,1.794,0,0,0,2.424.023,1.712,1.712,0,0,0,.505-1.321A1.612,1.612,0,0,0,349.466,474.186Z" transform="translate(-233.549 -415.208)" fill="#030504"/><path d="M362.761,467.3a.809.809,0,0,1,.816.8.822.822,0,0,1-1.643,0A.812.812,0,0,1,362.761,467.3Zm-.609,2.907h1.206v5.641h-1.206Z" transform="translate(-241.594 -412.18)" fill="#030504"/><path d="M369.043,476.449a1.744,1.744,0,0,0,1.838,1.482,2.433,2.433,0,0,0,1.643-.666l.574.827a3.162,3.162,0,0,1-2.252.908,2.948,2.948,0,1,1-.115-5.894,2.538,2.538,0,0,1,2.608,2.585,3.6,3.6,0,0,1-.092.758Zm3.091-.943a1.364,1.364,0,0,0-1.448-1.379,1.652,1.652,0,0,0-1.62,1.379Z" transform="translate(-244.659 -415.207)" fill="#030504"/><path d="M381.823,477.15a2.163,2.163,0,0,0,1.585.8c.517,0,.908-.218.908-.632,0-.334-.241-.471-.793-.7l-.574-.241c-1-.414-1.471-.85-1.471-1.643,0-1.011.839-1.631,1.988-1.631a2.414,2.414,0,0,1,1.953.873l-.655.747a1.838,1.838,0,0,0-1.321-.574c-.471,0-.77.184-.77.54,0,.287.2.437.747.666l.54.218c1.068.448,1.539.908,1.539,1.7a1.518,1.518,0,0,1-.6,1.275,2.427,2.427,0,0,1-1.493.448,2.832,2.832,0,0,1-2.275-1.091Z" transform="translate(-251.604 -415.208)" fill="#030504"/><path d="M402.968,479a2.444,2.444,0,0,1-1.885-.816v2.757h-1.206v-7.709H401v.793a2.351,2.351,0,0,1,1.965-.919,2.953,2.953,0,0,1,0,5.894Zm-.2-4.791a1.85,1.85,0,0,0,0,3.688,1.848,1.848,0,0,0,0-3.688Z" transform="translate(-261.375 -415.208)" fill="#030504"/><path d="M419.045,473.37l-2.723,5.768h-.414l-2.734-5.768h1.287l1.654,3.734,1.643-3.734Z" transform="translate(-268.307 -415.345)" fill="#030504"/><path d="M430.371,477.4a4.944,4.944,0,0,1-1,.126,1.82,1.82,0,0,1-2.079-1.964V472.8h-.92v-1.045h.92v-1.482h1.218v1.482h1.677V472.8H428.51v2.654c0,.724.379.977,1.114.977.172,0,.414-.023.747-.057Z" transform="translate(-275.188 -413.731)" fill="#030504"/><path d="M437.841,481.7a.891.891,0,0,1,0,1.781.883.883,0,0,1-.908-.885A.893.893,0,0,1,437.841,481.7Z" transform="translate(-280.693 -419.687)" fill="#030504"/><path d="M450.709,467.153h1.206v8.617h-1.206Z" transform="translate(-287.875 -412.104)" fill="#030504"/><path d="M459.531,477.4a4.943,4.943,0,0,1-1,.126,1.82,1.82,0,0,1-2.08-1.964V472.8h-.919v-1.045h.919v-1.482h1.218v1.482h1.678V472.8H457.67v2.654c0,.724.379.977,1.114.977.173,0,.414-.023.747-.057Z" transform="translate(-290.39 -413.731)" fill="#030504"/><path d="M471.3,467.153v8.617h-1.126v-.8a2.365,2.365,0,0,1-1.976.931,2.953,2.953,0,0,1,0-5.894,2.393,2.393,0,0,1,1.884.816v-3.665Zm-2.9,3.952a1.848,1.848,0,0,0,0,3.688,1.679,1.679,0,0,0,1.7-1.838A1.7,1.7,0,0,0,468.409,471.105Z" transform="translate(-295.556 -412.104)" fill="#030504"/><path d="M481.9,481.7a.891.891,0,0,1,0,1.781.883.883,0,0,1-.908-.885A.893.893,0,0,1,481.9,481.7Z" transform="translate(-303.665 -419.687)" fill="#030504"/><path d="M368.809,437.465a4,4,0,1,1,0,7.995,4,4,0,1,1,0-7.995Z" transform="translate(-243.032 -396.627)" fill="#91bd2b"/><path d="M162.653,352.525a4,4,0,1,1,0,7.995,4,4,0,1,1,0-7.995Z" transform="translate(-135.559 -352.346)" fill="#91bd2b"/></g></g></svg>